{"accessors":[{"bufferView":0,"componentType":5126,"count":2,"min":[0.0],"max":[16.7],"type":"SCALAR","name":"accessorAnimationInput"},{"bufferView":1,"componentType":5126,"count":2,"type":"VEC3","name":"accessorAnimationScales"},{"bufferView":2,"componentType":5126,"count":148,"min":[-7.690944671630859,-5.361380100250244,-3.0211286544799806],"max":[7.690944671630859,10.826212882995606,0.8977489471435547],"type":"VEC3","name":"x6_FUSELAGE_vertices#0_POSITION"},{"bufferView":2,"byteOffset":12,"componentType":5120,"count":148,"type":"VEC4","name":"x6_FUSELAGE_vertices#0_TANGENT"},{"bufferView":2,"byteOffset":16,"componentType":5120,"count":148,"type":"VEC4","name":"x6_FUSELAGE_vertices#0_NORMAL"},{"bufferView":2,"byteOffset":20,"componentType":5122,"count":148,"type":"VEC2","name":"x6_FUSELAGE_vertices#0_TEXCOORD_0"},{"bufferView":2,"byteOffset":24,"componentType":5122,"count":148,"type":"VEC2","name":"x6_FUSELAGE_vertices#0_TEXCOORD_1"},{"bufferView":2,"byteOffset":28,"componentType":5123,"count":148,"type":"VEC4","name":"x6_FUSELAGE_vertices#0_COLOR_0"},{"bufferView":3,"componentType":5123,"count":423,"type":"SCALAR","name":"x6_FUSELAGE_indices#0"}],"animations":[{"name":"All Animations","channels":[{"sampler":0,"target":{"node":0,"path":"scale"}}],"samplers":[{"input":0,"output":1,"interpolation":"LINEAR"}]}],"asset":{"generator":"babylon.js glTF exporter for 3dsmax 2019 v1.5.0","version":"2.0","extensions":{"ASOBO_asset_optimized":{"BoundingBoxMax":[7.690944671630859,10.826212882995606,0.8977489471435547],"BoundingBoxMin":[-7.690944671630859,-5.361380100250244,-3.0211286544799806],"MajorVersion":4,"MinorVersion":2},"ASOBO_normal_map_convention":{"tangent_space_convention":"DirectX"}}},"bufferViews":[{"buffer":0,"byteLength":8,"byteOffset":120,"name":"bufferViewAnimationFloatScalar"},{"buffer":0,"byteLength":24,"byteOffset":232,"name":"bufferViewAnimationFloatVec3"},{"buffer":0,"byteLength":5328,"byteStride":36,"byteOffset":304,"target":34962,"name":"BufferViewVertexND"},{"buffer":0,"byteLength":846,"byteOffset":5682,"target":34963,"name":"BufferViewIndex"}],"extensionsUsed":["ASOBO_normal_map_convention","MSFT_texture_dds","ASOBO_asset_optimized"],"extensionsRequired":["MSFT_texture_dds"],"materials":[{"name":"LOD6","normalTexture":{"index":2,"scale":0.4},"occlusionTexture":{"index":1},"pbrMetallicRoughness":{"baseColorTexture":{"index":0},"metallicRoughnessTexture":{"index":1}}}],"meshes":[{"primitives":[{"attributes":{"COLOR_0":7,"NORMAL":4,"POSITION":2,"TANGENT":3,"TEXCOORD_0":5,"TEXCOORD_1":6},"indices":8,"material":0,"mode":4,"extras":{"ASOBO_primitive":{"PrimitiveCount":141,"VertexType":"VTX","VertexVersion":2}}}],"name":"x6_FUSELAGE"}],"nodes":[{"translation":[0.0,0.7957076,-4.13355827],"rotation":[0.7071068,0.0,0.0,0.7071067],"scale":[1.0,1.0,1.0],"mesh":0,"name":"FUSELAGE"}],"scene":0,"scenes":[{"nodes":[0]}],"textures":[{"extensions":{"MSFT_texture_dds":{"source":0}}},{"extensions":{"MSFT_texture_dds":{"source":1}}},{"extensions":{"MSFT_texture_dds":{"source":2}}}],"buffers":[{"byteLength":6528,"uri":"CJ4_LOD06.bin"}],"images":[{"uri":"CESSNA_CJ4_AIRFRAME_LOD6_ALBD.PNG.DDS","extras":"ASOBO_image_converted_meta"},{"uri":"CESSNA_CJ4_AIRFRAME_LOD6_COMP.PNG.DDS","extras":"ASOBO_image_converted_meta"},{"uri":"CESSNA_CJ4_AIRFRAME_FUSELAGE_NORM.PNG.DDS","extras":"ASOBO_image_converted_meta"}]}
